<svg width="2891" height="1314" viewBox="0 0 2891 1314" fill="none" xmlns="http://www.w3.org/2000/svg">
<path fill-rule="evenodd" clip-rule="evenodd" d="M603.023 1514.08C722.688 1721.35 1044.67 1803.3 1188.97 1844.79C1340.37 1888.32 1485.49 2030.48 1714.53 1898.24C2002.08 1732.23 2325.54 1281.04 2094.42 1115.45C1936.19 1002.08 1844.59 962.537 1583.05 1000.59C1380.73 1030.03 1201.89 880.915 926.871 1039.7C639.321 1205.72 437.057 1226.62 603.023 1514.08Z" fill="#62E6AC"/>
<path d="M1144.14 1925.22C1134.71 1922.51 1124.68 1919.67 1114.11 1916.67C1022.63 1890.72 891.118 1853.42 762.737 1795.1C619.518 1730.05 480.275 1638.88 404.853 1508.25C352.512 1417.59 329.254 1348.02 329.413 1291.38C329.572 1234.79 353.121 1191.05 394.562 1152.05C436.023 1113.02 495.373 1078.76 567.094 1041.14C586.598 1030.91 607.016 1020.43 628.234 1009.54C685.019 980.393 747.537 948.306 813.617 910.155C987.106 809.991 1130.22 806.909 1261.91 824.223C1294.83 828.553 1327.04 834.157 1358.84 839.84C1362.7 840.53 1366.56 841.221 1370.4 841.91C1398.26 846.904 1425.82 851.846 1453.29 855.921C1515.81 865.197 1577.87 869.986 1641.79 860.674C1806.85 836.628 1918.22 837.083 2013.26 861.394C2108.3 885.706 2187.07 933.886 2286.92 1005.39C2359.69 1057.51 2388.8 1132.1 2385.86 1218.01C2382.92 1303.94 2347.91 1401.18 2292.42 1498.49C2181.43 1693.11 1988.62 1887.82 1807.18 1992.57C1662.73 2075.97 1544.8 2072.86 1439.09 2042.06C1386.21 2026.66 1336.4 2004.32 1287.83 1982.4L1285.02 1981.13C1237.45 1959.65 1191.04 1938.69 1144.14 1925.22Z" stroke="#D2D2D2"/>
<path d="M1099.8 2010.64C1088.32 2007.34 1076.11 2003.87 1063.25 2000.22C951.89 1968.63 791.792 1923.2 635.501 1852.19C461.15 1772.97 291.62 1661.96 199.779 1502.89C136.054 1392.51 107.724 1307.79 107.912 1238.82C108.1 1169.88 136.778 1116.61 187.235 1069.12C237.714 1021.61 309.968 979.895 397.267 934.101C421.009 921.647 445.863 908.891 471.691 895.635C540.81 860.161 616.905 821.107 697.336 774.67C908.536 652.734 1082.77 648.997 1243.09 670.091C1283.17 675.365 1322.38 682.191 1361.09 689.113C1365.79 689.953 1370.49 690.795 1375.17 691.635C1409.08 697.717 1442.63 703.736 1476.06 708.699C1552.16 719.997 1627.69 725.832 1705.48 714.504C1906.41 685.247 2041.99 685.81 2157.71 715.422C2273.43 745.033 2369.33 803.705 2490.88 890.768C2579.5 954.246 2614.96 1045.1 2611.39 1149.71C2607.82 1254.35 2565.2 1372.74 2497.65 1491.21C2362.56 1728.14 2127.86 1965.17 1906.99 2092.69C1731.14 2194.22 1587.55 2190.43 1458.84 2152.91C1394.47 2134.15 1333.82 2106.95 1274.7 2080.25L1271.29 2078.71C1213.37 2052.55 1156.88 2027.04 1099.8 2010.64Z" stroke="#D2D2D2"/>
</svg>
