<svg width="50" height="80" viewBox="0 0 50 80" fill="none" xmlns="http://www.w3.org/2000/svg">
<mask id="path-1-inside-1" fill="white">
<path fill-rule="evenodd" clip-rule="evenodd" d="M12.5309 10.7868C4.85441 17.4599 4.04038 31.5502 3.47717 37.9038C2.88625 44.5699 -1.8687 51.7755 5.4987 60.2507C14.7483 70.8912 36.1818 80.7126 41.2187 69.7309C44.667 62.2127 45.5755 58.0725 41.8731 47.477C39.0089 39.2805 43.7814 30.6127 34.9348 20.4358C25.6851 9.79528 23.1775 1.53184 12.5309 10.7868Z"/>
</mask>
<path d="M12.5309 10.7868L11.8748 10.0321L12.5309 10.7868ZM3.47717 37.9038L2.48107 37.8155L3.47717 37.9038ZM5.4987 60.2507L6.25341 59.5946L5.4987 60.2507ZM41.2187 69.7309L42.1277 70.1478L41.2187 69.7309ZM41.8731 47.477L40.929 47.8069L41.8731 47.477ZM34.9348 20.4358L35.6895 19.7797L34.9348 20.4358ZM11.8748 10.0321C7.80037 13.574 5.61408 19.0121 4.36405 24.2322C3.10967 29.4705 2.76035 34.6651 2.48107 37.8155L4.47326 37.9921C4.7572 34.789 5.09651 29.7616 6.30906 24.698C7.52596 19.6163 9.58492 14.6727 13.1869 11.5415L11.8748 10.0321ZM2.48107 37.8155C2.34095 39.3962 1.95255 41.0225 1.53467 42.7853C1.12285 44.5225 0.686109 46.3791 0.507818 48.3067C0.144445 52.2354 0.858041 56.4365 4.74399 60.9067L6.25341 59.5946C2.77197 55.5897 2.17934 51.9504 2.49932 48.4909C2.6627 46.7245 3.06503 45.0002 3.48073 43.2466C3.89037 41.5187 4.31793 39.7445 4.47326 37.9921L2.48107 37.8155ZM4.74399 60.9067C9.49001 66.3664 17.3131 71.5794 24.6185 74.0465C28.2703 75.2798 31.8861 75.8591 34.971 75.3663C38.1044 74.8657 40.706 73.2474 42.1277 70.1478L40.3098 69.314C39.213 71.7052 37.2465 72.9774 34.6555 73.3913C32.0159 73.813 28.7509 73.3311 25.2584 72.1517C18.2755 69.7934 10.757 64.7754 6.25341 59.5946L4.74399 60.9067ZM42.1277 70.1478C43.8617 66.3671 45.0188 63.3113 45.2257 59.8171C45.4324 56.326 44.6864 52.4968 42.8171 47.1471L40.929 47.8069C42.7621 53.0527 43.4131 56.5914 43.2292 59.6989C43.0454 62.8032 42.024 65.5765 40.3098 69.314L42.1277 70.1478ZM42.8171 47.1471C42.1475 45.231 41.9155 43.2635 41.8237 41.181C41.7778 40.1375 41.7674 39.0825 41.7516 37.9879C41.7359 36.9 41.7147 35.7794 41.6455 34.6385C41.3658 30.0259 40.2979 25.0811 35.6895 19.7797L34.1801 21.0918C38.4183 25.9674 39.3875 30.4449 39.6492 34.7596C39.7154 35.8504 39.7361 36.9307 39.7518 38.0168C39.7674 39.0962 39.7781 40.1883 39.8257 41.269C39.9211 43.435 40.1665 45.6247 40.929 47.8069L42.8171 47.1471ZM35.6895 19.7797C33.3946 17.1397 31.535 14.6678 29.8098 12.5127C28.1121 10.3919 26.5224 8.54791 24.8405 7.33859C23.1119 6.09567 21.237 5.48841 19.0337 5.91166C16.8998 6.32155 14.5853 7.6759 11.8748 10.0321L13.1869 11.5415C15.7997 9.27024 17.7912 8.1869 19.4109 7.87575C20.9612 7.57794 22.2875 7.96627 23.6729 8.96239C25.105 9.99212 26.5419 11.6307 28.2485 13.7626C29.9277 15.8603 31.8502 18.4116 34.1801 21.0918L35.6895 19.7797Z" fill="#191919" mask="url(#path-1-inside-1)"/>
<mask id="path-3-inside-2" fill="white">
<path fill-rule="evenodd" clip-rule="evenodd" d="M13.2641 5.47496C4.38717 13.1915 3.429 29.466 2.77033 36.8046C2.07926 44.5042 -3.42313 52.8321 5.07764 62.6112C15.7502 74.8885 40.4996 86.2046 46.3325 73.5151C50.3257 64.8279 51.3804 60.0451 47.1164 47.8126C43.8179 38.3498 49.3424 28.3331 39.1348 16.5906C28.4622 4.31326 25.5756 -5.22728 13.2641 5.47496Z"/>
</mask>
<path d="M13.2641 5.47496L13.9201 6.22967L13.2641 5.47496ZM2.77033 36.8046L1.77433 36.7152L2.77033 36.8046ZM5.07764 62.6112L4.32293 63.2672L5.07764 62.6112ZM46.3325 73.5151L47.2411 73.9328L46.3325 73.5151ZM47.1164 47.8126L48.0607 47.4835L47.1164 47.8126ZM39.1348 16.5906L38.3801 17.2467L39.1348 16.5906ZM12.608 4.72026C7.93385 8.78345 5.41125 15.0278 3.9631 21.0476C2.51061 27.0854 2.10131 33.0722 1.77433 36.7152L3.76632 36.894C4.09802 33.1984 4.49713 27.3786 5.90762 21.5154C7.32245 15.6342 9.71739 9.88306 13.9201 6.22967L12.608 4.72026ZM1.77433 36.7152C1.60926 38.5544 1.15544 40.4446 0.671088 42.4783C0.192833 44.4864 -0.311372 46.621 -0.518604 48.8349C-0.939937 53.3362 -0.13022 58.1445 4.32293 63.2672L5.83235 61.9551C1.78473 57.2989 1.09526 53.0536 1.47269 49.0213C1.66485 46.9685 2.13451 44.9662 2.61667 42.9417C3.09273 40.9428 3.58586 38.9047 3.76632 36.894L1.77433 36.7152ZM4.32293 63.2672C9.7807 69.5457 18.7888 75.5416 27.2009 78.3734C31.406 79.7891 35.5555 80.4461 39.0852 79.8786C42.6633 79.3033 45.6205 77.4584 47.2411 73.9328L45.4239 73.0975C44.128 75.9166 41.8043 77.4157 38.7678 77.9039C35.683 78.3999 31.8844 77.8398 27.839 76.478C19.75 73.7548 11.0471 67.954 5.83235 61.9551L4.32293 63.2672ZM47.2411 73.9328C49.2476 69.5677 50.5775 66.0591 50.8191 62.0535C51.0605 58.051 50.2109 53.6518 48.0607 47.4835L46.1722 48.1418C48.286 54.2059 49.041 58.3143 48.8227 61.9331C48.6047 65.549 47.4107 68.7753 45.4239 73.0975L47.2411 73.9328ZM48.0607 47.4835C47.2825 45.251 47.0159 42.962 46.9123 40.5504C46.8603 39.3424 46.8497 38.1211 46.8328 36.8581C46.816 35.6019 46.793 34.3108 46.7147 32.997C46.3987 27.6932 45.1788 22.0192 39.8895 15.9346L38.3801 17.2467C43.2984 22.9045 44.42 28.1102 44.7183 33.116C44.7936 34.3796 44.8162 35.6304 44.833 36.8849C44.8497 38.1327 44.8606 39.3911 44.9141 40.6363C45.0213 43.1313 45.3011 45.6428 46.1722 48.1418L48.0607 47.4835ZM39.8895 15.9346C37.2389 12.8854 35.0889 10.0269 33.1021 7.54443C31.1427 5.09628 29.32 2.98419 27.3974 1.60325C25.4279 0.188556 23.3048 -0.493324 20.8099 -0.0115918C18.3847 0.456686 15.7346 2.00238 12.608 4.72026L13.9201 6.22967C16.9493 3.59643 19.2769 2.32135 21.1891 1.95214C23.0315 1.59638 24.6055 2.0603 26.2307 3.22763C27.9028 4.42871 29.5723 6.33488 31.5406 8.79415C33.4814 11.2191 35.6944 14.1572 38.3801 17.2467L39.8895 15.9346Z" fill="#191919" mask="url(#path-3-inside-2)"/>
<path fill-rule="evenodd" clip-rule="evenodd" d="M11.7377 16.6016C5.65568 21.8878 4.72989 32.7432 4.24747 38.378L4.17325 39.2549C4.05216 40.6212 3.72208 42.0147 3.38419 43.4444C2.34122 47.8419 1.21818 52.5811 5.86271 57.9239C13.5893 66.8126 31.4955 75.0176 35.7025 65.8438C38.5834 59.5626 39.3432 56.1045 36.2494 47.253C35.3881 44.7891 35.3529 42.2745 35.3158 39.668C35.2514 35.0313 35.183 30.1055 30.4526 24.6631C29.0463 23.046 27.8276 21.4942 26.7201 20.084C21.7397 13.7462 19.0131 10.2774 11.7377 16.6016ZM16.8041 52.3126C16.7826 52.3223 16.7514 52.3262 16.7104 52.3253C16.6576 52.3243 16.6537 52.3204 16.6479 52.3116C16.64 52.3018 16.6303 52.2872 16.5541 52.2667C16.5092 52.2549 16.4799 52.2286 16.4467 52.2012C16.4272 52.1846 16.4076 52.167 16.3822 52.1524C16.351 52.1338 16.3236 52.1143 16.3002 52.0919C16.2748 52.0665 16.2514 52.0391 16.2318 52.0098L16.0893 51.8858L15.9154 51.7256C15.8529 51.6661 15.8041 51.6172 15.769 51.5782C15.7377 51.543 15.7182 51.5167 15.7104 51.4981C15.6752 51.4424 15.642 51.3858 15.6108 51.3272C15.5131 51.1465 15.4389 50.9503 15.3881 50.7383C15.3178 50.4581 15.2865 50.1319 15.2924 49.7598C15.2983 49.4805 15.3315 49.1182 15.3959 48.6719C15.4252 48.4649 15.5014 48.1299 15.5756 47.8057C15.6596 47.4337 15.7397 47.0762 15.7416 46.9473C15.7436 46.8536 15.7084 46.8067 15.6322 46.8057C15.5404 46.8038 15.4369 46.835 15.3236 46.8975C15.2104 46.961 14.8608 47.2579 14.7475 47.3301C14.6166 47.4024 14.4838 47.4932 14.3529 47.6026C14.2572 47.6563 14.1733 47.7198 14.0971 47.793L13.8275 47.9981L13.5033 48.2579C13.4643 48.2754 13.4076 48.3213 13.3315 48.3946L13.1596 48.5206L12.8842 48.7286L12.64 48.92L12.2123 49.2686C11.8451 49.5782 11.2065 50.0704 10.7748 50.2862L10.7279 50.3253C10.7045 50.3389 10.683 50.3487 10.6615 50.3536L10.6264 50.3653C10.601 50.377 10.5756 50.3956 10.5483 50.4219C10.5111 50.4395 10.4779 50.4571 10.4506 50.4756C10.4213 50.4942 10.3881 50.5118 10.351 50.5294C10.3119 50.5538 10.2416 50.5899 10.1596 50.6212C9.99747 50.6827 9.78458 50.7276 9.67521 50.6387C9.56388 50.5626 9.3881 50.252 9.35099 50.1583L9.19474 49.5137C9.19669 49.421 9.19278 49.3272 9.18497 49.2344C9.18107 49.1573 9.16935 49.0801 9.15568 49.003L9.14982 48.9542L9.10294 48.3389C9.10489 48.2276 9.10294 48.1202 9.09513 48.0176C9.08732 47.9151 9.08536 47.8174 9.08732 47.7247C9.06974 47.6124 9.06193 47.5147 9.06388 47.4307L9.06778 47.1661L9.0756 46.7745C9.09122 45.8819 9.19083 45.003 9.37247 44.1407C9.46622 43.7003 9.56583 43.2569 9.66935 42.8096C9.767 42.3809 9.87052 41.9483 9.97794 41.5128L10.0658 41.2344C10.1869 40.7344 10.3119 40.2335 10.4408 39.7335L10.6166 39.0753C10.6908 38.8008 10.767 38.5294 10.8451 38.2598C10.8705 38.1983 10.892 38.1338 10.9096 38.0674L10.933 37.9688L10.9955 37.6768C11.0346 37.5284 11.0756 37.3243 11.1166 37.0645C11.2182 36.6563 11.3002 36.2393 11.3627 35.8116C11.4252 35.3848 11.4897 34.9854 11.5522 34.6143L11.6459 34.0294L11.7104 33.5557C11.7318 33.3887 11.7611 33.2305 11.8022 33.0831L11.8393 32.9805C11.8568 32.9219 11.8686 32.8633 11.8764 32.8047C11.8881 32.712 11.9115 32.629 11.9506 32.5547C11.9897 32.462 12.019 32.3838 12.0385 32.3184C12.058 32.254 12.0873 32.2032 12.1244 32.167L12.144 32.1358C12.183 32.0723 12.1869 32.0665 12.2397 32.043C12.3002 32.0157 12.3412 32.0352 12.3783 32.046C12.4018 32.0518 12.4252 32.0635 12.4486 32.0801L12.4897 32.1172L12.7358 32.3448C12.8275 32.4395 12.8822 32.5342 12.8998 32.627C12.9115 32.6866 12.9252 32.7491 12.9428 32.8155L12.9779 32.9356C13.0502 33.0489 13.0854 33.1885 13.0815 33.3565C13.0815 33.4122 13.0756 33.4678 13.0658 33.5235C13.0561 33.5792 13.0502 33.6446 13.0483 33.7188C13.0658 33.8126 13.0736 33.9004 13.0717 33.9844L13.0658 34.2774C13.0639 34.4268 13.0658 34.5713 13.0736 34.711C13.0795 34.8506 13.0815 34.9952 13.0795 35.1436L13.0756 35.3672L13.0697 35.4522C13.0639 35.4981 13.0561 35.544 13.0443 35.5899C13.0229 35.6456 13.0131 35.7286 13.0111 35.8409C12.9233 36.3624 12.8295 36.8819 12.7299 37.4004C12.5912 38.1172 12.4389 38.8321 12.2748 39.542C12.2748 39.6163 12.2533 39.709 12.2143 39.8204L10.8197 45.5577C10.7397 45.9102 10.6869 46.2071 10.6654 46.4483C10.6518 46.5909 10.64 46.8731 10.6303 47.1094L10.6205 47.4151L10.6186 47.4717C10.6166 47.5235 10.6225 47.5792 10.6322 47.6387L10.6557 47.7393L10.6693 47.794C10.7045 47.9161 10.7592 47.9766 10.8334 47.9786C10.89 47.9795 10.974 47.9669 11.0854 47.9405C11.1986 47.9151 11.349 47.8194 11.5385 47.6553L11.851 47.3819L12.0502 47.2335L12.2065 47.1133C12.519 46.8692 12.808 46.6163 13.0697 46.3555C13.4291 45.9991 13.7416 45.7208 14.0072 45.5206C14.2143 45.3194 14.3764 45.1778 14.4897 45.0958C14.6029 45.0137 14.6772 44.9551 14.7162 44.918C14.9428 44.7178 15.183 44.5684 15.4369 44.4698C15.6889 44.3721 15.8998 44.3243 16.0678 44.3272C16.2162 44.3301 16.3705 44.3751 16.5268 44.461C16.601 44.502 16.6752 44.5479 16.7475 44.5997C16.8275 44.6573 16.9057 44.7208 16.9818 44.7901C17.2025 44.9991 17.3373 45.2901 17.3861 45.6631C17.3822 45.9053 17.3627 46.1378 17.3315 46.3604C17.3002 46.5831 17.2885 46.4434 17.2807 46.8712L17.2631 47.1504C17.2553 47.2413 17.2494 47.3409 17.2455 47.4493L17.2397 47.667L17.2279 48.2667L17.2201 48.7969C17.2123 49.1504 17.2123 49.5049 17.2143 49.8585C17.2182 50.212 17.2143 50.668 17.2045 51.2266L17.2025 51.3292C17.1986 51.5333 17.1791 51.6915 17.1381 51.8028C17.1381 51.8399 17.1186 51.8956 17.0795 51.9688C17.0424 52.043 17.0131 52.0889 16.9936 52.1075C16.974 52.1251 16.9662 52.1436 16.9643 52.1622L16.8236 52.2999L16.8041 52.3126ZM19.8451 51.7852L19.6108 51.7813C19.4252 51.7774 19.269 51.71 19.1401 51.5772C19.0854 51.5206 19.0307 51.4122 18.9779 51.253C18.9252 51.0938 18.8764 50.9122 18.8334 50.7061C18.7904 50.501 18.7572 50.2911 18.7338 50.0762C18.7182 49.9385 18.7084 49.8145 18.7026 49.7042L18.7006 49.5313C18.7065 49.2149 18.7397 48.8477 18.8041 48.4297L18.8627 48.0606C18.9135 47.7569 18.9721 47.4434 19.0365 47.1212C19.0776 46.9151 19.1225 46.7081 19.1713 46.4981C19.2318 46.2452 19.2963 45.9893 19.3686 45.7305L19.7416 44.3829L20.4057 42.2715L20.7709 41.1338L21.1752 39.8975C21.4408 39.0928 21.6928 38.2872 21.9291 37.4815C22.1674 36.6758 22.3764 35.9112 22.5561 35.1885C22.6361 34.8917 22.6967 34.5723 22.7416 34.2286L22.7943 33.8262C22.8197 33.6631 22.8432 33.5235 22.8666 33.4063L22.9135 33.2276C22.9213 33.1866 22.9291 33.1465 22.933 33.1065L22.9428 33.0313C22.9545 32.9102 22.9701 32.8038 22.9916 32.711C23.0111 32.5997 23.0326 32.4971 23.0522 32.4044C23.0736 32.293 23.1401 32.1504 23.2553 31.9747C23.3705 31.7999 23.5209 31.7149 23.7065 31.7178C23.894 31.7208 24.3783 32.1905 24.433 32.2754C24.4877 32.3594 24.5522 32.4493 24.6244 32.544C24.7162 32.6387 24.7592 32.8438 24.7533 33.1602C24.7514 33.2715 24.7299 33.4014 24.6908 33.5499C24.6713 33.6241 24.6596 33.6895 24.6596 33.7452C24.6576 33.8194 24.6225 33.9962 24.5522 34.2735C24.4818 34.5518 24.3979 34.8712 24.2983 35.2325L24.185 35.6358L24.1186 35.8624L23.9858 36.3028C23.8764 36.6544 23.7924 36.9317 23.7338 37.1358C23.6752 37.3213 23.5795 37.6358 23.4506 38.0801L23.2045 38.9444L23.0502 39.4981C22.9096 39.9981 22.7709 40.4659 22.6342 40.9004L22.3373 41.8311C22.2592 42.0528 22.1811 42.294 22.101 42.5528C22.0229 42.8126 21.9486 43.0665 21.8783 43.3174C21.81 43.5674 21.7397 43.8038 21.6713 44.0254C21.601 44.2481 21.5385 44.4327 21.4799 44.5811C21.4174 44.7325 21.3627 44.8936 21.3119 45.0635C21.2807 45.1631 21.2533 45.2657 21.2279 45.3721C21.1576 45.6592 21.1205 45.9522 21.1147 46.2501C21.1127 46.3428 21.1225 46.3985 21.1401 46.418C21.1674 46.3467 21.1967 46.2764 21.2299 46.2061L21.2787 46.1026C21.3236 46.0079 21.3744 45.9141 21.4291 45.8223L21.5795 45.5782L21.8608 45.1456C22.0151 44.9063 22.1908 44.668 22.3901 44.4288C22.5912 44.1905 22.8041 43.9239 23.0326 43.6299C23.4526 43.0977 23.9115 42.6592 24.4115 42.3135C24.9115 41.9688 25.394 41.8008 25.8608 41.8087C26.2885 41.8165 26.6733 41.921 27.0151 42.1221C27.3549 42.3233 27.644 42.5889 27.8803 42.919C28.1166 43.2491 28.2963 43.6202 28.4213 44.0313C28.5443 44.4434 28.601 44.8536 28.5951 45.2637C28.5795 46.1006 28.3901 46.8516 28.0248 47.5157C27.6576 48.1797 27.1908 48.7715 26.6244 49.292C26.0561 49.8126 25.4233 50.2628 24.7279 50.6417C24.4193 50.8096 24.1127 50.9629 23.81 51.1016C23.4272 51.2754 23.0483 51.4268 22.6713 51.5547L22.183 51.7442L21.7983 51.9034C21.5932 51.9922 21.3119 52.0342 20.9584 52.0274C20.9057 52.0264 20.8529 52.0176 20.7983 51.9991C20.7553 51.9844 20.7104 51.9639 20.6654 51.9385C20.6127 51.9083 20.5697 51.879 20.5346 51.8497C20.5014 51.8223 20.4779 51.795 20.4604 51.7676C20.2553 51.7833 20.0502 51.7881 19.8451 51.7852ZM25.4291 47.9014C25.5131 47.8184 25.6303 47.7042 25.8588 47.5001C26.2104 47.1876 26.433 46.7637 26.5658 46.3409C26.683 45.9698 26.7299 45.5997 26.7358 45.3047C26.7475 44.6397 26.6537 44.2471 26.4565 44.127C26.3901 44.087 26.3197 44.0538 26.2455 44.0264C26.099 43.9717 25.9369 43.9434 25.7592 43.9405C25.7065 43.9395 25.6498 43.9483 25.5873 43.9678C25.4545 44.0088 25.3022 44.0958 25.1303 44.2286C25.0092 44.3213 24.599 44.7676 24.1615 45.2588C23.6811 45.7999 23.1635 46.3956 22.9584 46.6358C22.7201 46.9151 22.6166 47.0713 22.5014 47.2442C22.4272 47.3555 22.349 47.4727 22.2279 47.6338C21.9213 48.045 21.7182 48.3155 21.6147 48.4473L21.517 48.6153L21.4701 48.7003C21.4154 48.8038 21.3608 48.917 21.3041 49.0401C21.2006 49.2715 21.1401 49.9522 21.1361 50.1514C21.1342 50.2833 21.1537 50.378 21.1947 50.4356C21.226 50.4805 21.2709 50.504 21.3295 50.5049C21.4623 50.5069 21.7318 50.3868 22.1342 50.1446C22.349 50.0147 22.5854 49.8643 22.8393 49.6934C23.0619 49.544 23.2983 49.378 23.5502 49.1954C23.7201 49.0655 23.8549 48.9854 24.0326 48.879C24.2104 48.7725 24.4311 48.6407 24.7768 48.4053C25.226 48.0977 25.269 48.0567 25.4291 47.9014Z" fill="#191919"/>
</svg>
