<svg width="219" height="67" viewBox="0 0 219 67" fill="none" xmlns="http://www.w3.org/2000/svg">
<path d="M61.8722 50.923H70.8182L63.1502 43.326C65.8482 40.415 69.6822 35.019 69.6822 26.357C69.6822 12.441 59.1742 1.79102 45.0452 1.79102C30.8452 1.79102 20.4082 12.441 20.4082 26.357C20.4082 40.415 30.8452 50.923 45.0452 50.923C50.5122 50.923 54.6302 49.716 58.3222 47.373L61.8722 50.923ZM51.0092 31.256H41.9922L53.2102 42.403C51.1512 43.468 48.5952 44.249 45.0452 44.249C34.8922 44.249 27.6502 36.865 27.6502 26.357C27.6502 15.849 34.8922 8.46501 45.0452 8.46501C55.1982 8.46501 62.4402 15.849 62.4402 26.357C62.4402 32.321 60.5232 35.8 58.2512 38.427L51.0092 31.256Z" fill="#191919"/>
<path d="M73.519 20.109L89.068 52.13L97.446 33.031L105.824 52.13L121.373 20.109H113.563L105.824 37.22L97.446 17.553L89.068 37.22L81.329 20.109H73.519Z" fill="#191919"/>
<path d="M147.789 21.458C144.594 19.683 141.896 19.328 139.624 19.328C133.731 19.328 129.968 21.387 127.625 23.73C125.424 25.931 123.081 29.694 123.081 35.303C123.081 40.77 125.211 44.32 127.341 46.521C130.181 49.503 133.731 50.923 138.701 50.923C143.316 50.923 146.085 49.645 147.789 48.58V40.841C145.375 43.539 142.038 44.675 139.198 44.675C136.642 44.675 134.441 43.752 132.879 42.261C131.53 40.912 130.181 38.569 130.181 35.09C130.181 31.753 131.459 29.481 132.737 28.203C134.015 26.925 136.074 25.576 139.34 25.576C141.47 25.576 144.594 26.144 147.789 29.268V21.458Z" fill="#191919"/>
<path d="M176.326 23.375C173.77 20.322 170.433 19.328 167.451 19.328C159.57 19.328 152.896 25.292 152.896 35.019C152.896 43.326 158.15 50.923 167.38 50.923C169.51 50.923 173.273 50.426 176.326 46.663V66.259H183.284V20.109H176.326V23.375ZM168.303 25.576C172.705 25.576 176.752 28.7 176.752 35.232C176.752 41.48 172.705 44.675 168.303 44.675C163.262 44.675 159.996 40.344 159.996 35.161C159.996 29.836 163.262 25.576 168.303 25.576Z" fill="#191919"/>
<line y1="1" x2="219" y2="1" stroke="#191919" stroke-width="2"/>
</svg>
