<svg width="219" height="67" viewBox="0 0 219 67" fill="none" xmlns="http://www.w3.org/2000/svg">
<path fill-rule="evenodd" clip-rule="evenodd" d="M219 52H0V18H219V52Z" fill="#D2D2D2"/>
<path d="M63.2928 50.4968H70.1088L63.1508 43.3258C65.9198 40.4148 69.8248 35.0188 69.8248 26.3568C69.8248 12.2278 58.7488 1.86182 45.1878 1.86182C31.5558 1.86182 20.5508 12.2278 20.5508 26.3568C20.5508 40.4148 31.5558 50.8518 45.1878 50.8518C52.7138 50.8518 57.4708 47.8698 59.4588 46.5208L63.2928 50.4968ZM51.0808 30.9718H44.2648L55.6958 42.7578C52.0038 45.1718 48.1698 45.8818 45.1878 45.8818C34.5378 45.8818 25.9468 37.2198 25.9468 26.3568C25.9468 15.4938 34.5378 6.83182 45.1878 6.83182C55.7668 6.83182 64.4288 15.4938 64.4288 26.3568C64.4288 33.3148 61.1628 37.5748 59.3878 39.4918L51.0808 30.9718Z" fill="#191919"/>
<path d="M73.9389 20.5348L88.4229 52.0588L97.5109 30.0488L106.599 52.0588L121.225 20.5348H115.545L106.741 40.5568L97.5819 18.2628L88.3519 40.5568L79.6189 20.5348H73.9389Z" fill="#191919"/>
<path d="M149.67 22.6648C148.25 21.6708 145.197 19.8248 140.511 19.8248C131.423 19.8248 124.749 26.4278 124.749 35.4448C124.749 44.3198 131.352 50.8518 140.511 50.8518C143.28 50.8518 146.688 50.1418 149.883 47.7988V41.6928C147.185 44.9588 143.422 46.3078 140.369 46.3078C135.115 46.3078 130.003 42.5448 130.003 35.3738C130.003 28.2028 134.973 24.3688 140.44 24.3688C143.067 24.3688 146.972 25.3628 149.67 28.7708V22.6648Z" fill="#191919"/>
<path d="M180.305 24.7238C178.956 22.9488 175.903 19.8248 170.223 19.8248C162.697 19.8248 155.881 25.0788 155.881 35.2318C155.881 45.5978 162.768 50.8518 170.223 50.8518C175.406 50.8518 178.601 48.0828 180.305 45.8818V66.3298H185.417V20.5348H180.305V24.7238ZM170.791 24.3688C175.335 24.3688 180.589 27.7058 180.589 35.3028C180.589 41.1248 177.039 46.3078 170.791 46.3078C164.685 46.3078 161.135 41.5508 161.135 35.2318C161.135 28.0608 165.75 24.3688 170.791 24.3688Z" fill="#191919"/>
<line y1="1" x2="219" y2="1" stroke="#191919" stroke-width="2"/>
</svg>
